<?xml version="1.0" encoding="UTF-8"?>
<!-- Generator: visioncortex VTracer 0.6.12 -->
<svg version="1.1" xmlns="http://www.w3.org/2000/svg" width="1254" height="1254">
<path d="M0 0 C413.82 0 827.64 0 1254 0 C1254 413.82 1254 827.64 1254 1254 C840.18 1254 426.36 1254 0 1254 C0 840.18 0 426.36 0 0 Z " fill="#031E4A" transform="translate(0,0)"/>
<path d="M0 0 C413.82 0 827.64 0 1254 0 C1254 413.82 1254 827.64 1254 1254 C840.18 1254 426.36 1254 0 1254 C0 840.18 0 426.36 0 0 Z M252 38 C251.049 38.154 250.098 38.309 249.118 38.468 C200.557 46.555 156.218 71.009 121 105 C120.325 105.648 119.65 106.296 118.955 106.963 C109.48 116.097 100.759 125.369 93 136 C92.533 136.622 92.066 137.245 91.585 137.886 C57.338 183.576 42.437 236.465 42.621 292.996 C42.629 296.701 42.62 300.406 42.614 304.111 C42.605 310.58 42.606 317.05 42.615 323.519 C42.629 333.14 42.625 342.761 42.619 352.381 C42.607 369.569 42.612 386.757 42.624 403.945 C42.634 418.984 42.639 434.022 42.637 449.061 C42.637 450.061 42.637 451.06 42.637 452.09 C42.637 456.148 42.637 460.206 42.636 464.263 C42.632 502.284 42.645 540.305 42.666 578.325 C42.684 612.077 42.69 645.828 42.684 679.579 C42.684 681.747 42.684 683.915 42.683 686.083 C42.683 687.155 42.683 688.227 42.683 689.332 C42.682 694.728 42.681 700.124 42.68 705.52 C42.68 706.584 42.68 707.649 42.68 708.746 C42.676 736.985 42.681 765.223 42.69 793.462 C42.691 796.501 42.692 799.541 42.693 802.58 C42.693 804.596 42.694 806.613 42.694 808.629 C42.699 822.664 42.699 836.699 42.697 850.734 C42.695 868.82 42.699 886.907 42.714 904.993 C42.722 914.549 42.725 924.106 42.72 933.663 C42.717 940.055 42.721 946.447 42.731 952.84 C42.737 956.476 42.74 960.112 42.733 963.747 C42.678 998.549 42.678 998.549 47 1015 C47.331 1016.465 47.655 1017.932 47.965 1019.402 C51.058 1033.849 51.058 1033.849 53.168 1039.625 C54.085 1042.242 54.855 1044.892 55.634 1047.553 C58.281 1056.45 61.822 1064.719 66 1073 C66.197 1073.398 66.197 1073.398 67.196 1075.411 C75.267 1091.628 84.467 1106.984 96 1121 C96.66 1121.831 97.32 1122.663 98 1123.52 C110.13 1138.66 123.626 1153.137 139 1165 C139.53 1165.412 140.06 1165.824 140.606 1166.248 C170.603 1189.402 204.385 1204.818 241.25 1213.25 C241.897 1213.401 242.544 1213.552 243.21 1213.708 C259.694 1217.29 276.092 1217.293 292.881 1217.263 C296.547 1217.259 300.212 1217.266 303.878 1217.272 C310.29 1217.281 316.701 1217.282 323.113 1217.279 C332.648 1217.273 342.183 1217.28 351.719 1217.288 C369.744 1217.303 387.769 1217.305 405.795 1217.302 C419.721 1217.301 433.647 1217.302 447.572 1217.307 C449.575 1217.307 451.578 1217.308 453.582 1217.308 C456.6 1217.309 459.619 1217.31 462.638 1217.311 C490.696 1217.32 518.755 1217.324 546.814 1217.32 C547.871 1217.32 548.928 1217.319 550.017 1217.319 C555.375 1217.318 560.733 1217.318 566.091 1217.317 C567.155 1217.317 568.219 1217.316 569.315 1217.316 C571.467 1217.316 573.618 1217.315 575.77 1217.315 C609.232 1217.31 642.693 1217.318 676.155 1217.336 C713.783 1217.357 751.411 1217.368 789.039 1217.364 C793.056 1217.363 797.073 1217.363 801.09 1217.363 C802.079 1217.362 803.068 1217.362 804.087 1217.362 C818.981 1217.361 833.875 1217.368 848.769 1217.378 C865.723 1217.39 882.677 1217.392 899.631 1217.38 C909.104 1217.373 918.577 1217.374 928.049 1217.388 C934.396 1217.396 940.743 1217.394 947.09 1217.382 C950.694 1217.376 954.297 1217.374 957.9 1217.386 C980.654 1217.456 1003.106 1216.653 1025 1210 C1026.084 1209.75 1027.168 1209.5 1028.285 1209.242 C1059.316 1202.035 1089.057 1185.503 1114 1166 C1114.868 1165.327 1115.735 1164.654 1116.629 1163.961 C1138.063 1146.903 1155.614 1126.561 1171 1104 C1171.4 1103.416 1171.801 1102.832 1172.213 1102.231 C1186.183 1081.611 1196.102 1058.124 1203.375 1034.375 C1203.626 1033.557 1203.877 1032.74 1204.136 1031.897 C1205.221 1028.217 1206.115 1024.669 1206.539 1020.852 C1207 1017 1207 1017 1207.959 1013.732 C1212.393 997.831 1211.289 980.55 1211.257 964.216 C1211.252 960.454 1211.258 956.691 1211.263 952.929 C1211.271 946.351 1211.27 939.773 1211.265 933.195 C1211.258 923.414 1211.262 913.632 1211.268 903.851 C1211.278 886.379 1211.277 868.907 1211.272 851.435 C1211.267 836.15 1211.265 820.865 1211.268 805.58 C1211.268 804.565 1211.268 803.55 1211.268 802.505 C1211.269 798.385 1211.269 794.265 1211.27 790.145 C1211.276 751.526 1211.271 712.906 1211.26 674.287 C1211.25 639.98 1211.251 605.672 1211.261 571.364 C1211.271 532.803 1211.276 494.241 1211.27 455.679 C1211.269 451.569 1211.268 447.459 1211.268 443.349 C1211.267 442.338 1211.267 441.326 1211.267 440.283 C1211.265 425.002 1211.268 409.722 1211.273 394.441 C1211.278 377.072 1211.277 359.704 1211.266 342.335 C1211.26 332.615 1211.26 322.894 1211.267 313.174 C1211.272 306.682 1211.269 300.19 1211.26 293.699 C1211.256 290 1211.254 286.301 1211.261 282.601 C1211.269 278.615 1211.261 274.629 1211.252 270.643 C1211.256 269.497 1211.261 268.351 1211.266 267.17 C1211.238 261.281 1210.796 255.829 1209.477 250.083 C1208.818 247.204 1208.481 244.305 1208.125 241.375 C1200.018 183.882 1163.792 126.183 1118 91 C1116.761 90.01 1115.523 89.019 1114.285 88.027 C1093.809 71.785 1071.34 59.46 1047 50 C1046.455 49.784 1046.455 49.784 1043.699 48.691 C1022.656 40.804 999.257 35.831 976.8 35.871 C975.578 35.87 974.357 35.868 973.098 35.866 C969.709 35.862 966.319 35.863 962.93 35.865 C959.242 35.867 955.553 35.863 951.865 35.859 C945.401 35.854 938.938 35.853 932.474 35.854 C922.862 35.855 913.25 35.851 903.637 35.846 C885.47 35.836 867.303 35.834 849.135 35.833 C835.104 35.832 821.072 35.83 807.041 35.827 C803.002 35.826 798.964 35.825 794.925 35.825 C793.921 35.824 792.917 35.824 791.883 35.824 C763.639 35.818 735.395 35.814 707.152 35.814 C706.087 35.814 705.022 35.814 703.924 35.814 C698.527 35.814 693.129 35.814 687.731 35.815 C687.195 35.815 687.195 35.815 684.482 35.815 C682.314 35.815 680.146 35.815 677.978 35.815 C644.256 35.815 610.534 35.808 576.812 35.794 C538.926 35.779 501.039 35.77 463.153 35.771 C459.112 35.771 455.071 35.771 451.03 35.771 C450.532 35.771 450.532 35.771 448.015 35.771 C432.01 35.771 416.006 35.765 400.001 35.756 C383.911 35.748 367.821 35.747 351.731 35.753 C342.177 35.757 332.622 35.755 323.067 35.746 C316.678 35.74 310.289 35.741 303.9 35.748 C300.264 35.752 296.628 35.753 292.992 35.745 C265.458 35.687 265.458 35.687 252 38 Z " fill="#FCFCFC" transform="translate(0,0)"/>
<path d="M0 0 C0.546 -0.005 0.546 -0.005 3.306 -0.029 C3.89 -0.028 3.89 -0.028 6.845 -0.026 C8.052 -0.03 9.258 -0.035 10.502 -0.039 C13.048 -0.045 15.595 -0.045 18.142 -0.041 C22.049 -0.038 25.954 -0.061 29.861 -0.087 C32.335 -0.089 34.809 -0.09 37.283 -0.089 C37.869 -0.093 37.869 -0.093 40.834 -0.117 C41.376 -0.113 41.376 -0.113 44.121 -0.098 C44.599 -0.098 44.599 -0.098 47.016 -0.1 C49.431 0.275 49.431 0.275 51.273 1.651 C52.431 3.275 52.431 3.275 52.278 5.628 C51.37 8.465 50.237 10.965 48.876 13.615 C48.349 14.662 47.822 15.71 47.279 16.789 C46.711 17.919 46.142 19.048 45.556 20.212 C22.576 66.697 10.096 120.025 6.625 171.675 C6.425 174.356 6.157 177.023 5.876 179.697 C4.355 195.028 4.215 210.318 4.181 225.712 C4.179 226.258 4.179 226.258 4.165 229.019 C4.154 232.145 4.157 235.27 4.166 238.396 C4.162 239.348 4.158 240.3 4.154 241.281 C4.16 242.158 4.166 243.036 4.172 243.94 C4.174 244.708 4.176 245.476 4.177 246.267 C4.431 248.275 4.431 248.275 6.431 251.275 C8.798 251.635 8.798 251.635 11.799 251.615 C12.359 251.615 12.359 251.615 15.196 251.615 C16.41 251.599 17.625 251.584 18.876 251.568 C20.117 251.563 21.357 251.559 22.634 251.555 C25.933 251.541 29.23 251.514 32.528 251.481 C35.893 251.45 39.258 251.436 42.623 251.421 C49.226 251.388 55.828 251.338 62.431 251.275 C62.446 250.141 62.46 249.007 62.475 247.839 C63.492 174.06 66.141 61.967 116.228 2.128 C118.875 -0.098 120.058 -0.231 123.472 -0.243 C124.473 -0.256 125.474 -0.268 126.506 -0.281 C127.582 -0.273 128.658 -0.265 129.767 -0.257 C130.879 -0.26 131.991 -0.264 133.137 -0.268 C135.489 -0.271 137.841 -0.264 140.193 -0.247 C143.786 -0.225 147.377 -0.247 150.97 -0.272 C153.257 -0.27 155.543 -0.264 157.83 -0.257 C158.902 -0.265 159.974 -0.273 161.078 -0.281 C167.168 -0.205 170.821 0.165 175.431 4.275 C179.483 9.8 181.231 16.285 183.283 22.751 C183.978 24.886 184.729 27.004 185.576 29.083 C186.745 32.079 186.67 33.288 185.431 36.275 C183.855 37.611 182.272 38.939 180.658 40.228 C172.523 47.706 165.894 57.757 160.431 67.275 C160.233 67.619 160.233 67.619 159.229 69.36 C147.708 89.615 139.468 111.527 134.431 134.275 C134.254 135.069 134.077 135.862 133.894 136.68 C131.856 145.969 130.186 155.304 128.806 164.712 C128.695 165.46 128.584 166.208 128.47 166.979 C128.085 169.741 127.753 172.505 127.431 175.275 C127.391 175.612 127.391 175.612 127.187 177.318 C125.311 193.39 125.005 209.42 124.806 225.587 C124.768 228.189 124.729 230.792 124.689 233.394 C124.594 239.687 124.509 245.981 124.431 252.275 C126.39 252.161 128.348 252.033 130.306 251.9 C131.397 251.83 132.487 251.76 133.611 251.689 C136.431 251.275 136.431 251.275 138.431 249.275 C138.689 247.438 138.689 247.438 138.702 245.177 C138.708 244.752 138.708 244.752 138.734 242.597 C138.736 241.668 138.738 240.739 138.74 239.782 C138.762 237.792 138.785 235.801 138.809 233.811 C138.818 232.764 138.827 231.717 138.837 230.639 C139.086 205.489 141.085 181.248 145.369 156.462 C145.49 155.758 145.611 155.055 145.736 154.329 C149.008 135.568 153.873 116.788 161.431 99.275 C161.692 98.644 161.954 98.013 162.223 97.363 C168.643 81.863 179.378 55.966 195.431 48.275 C220.216 53.232 247.071 87.324 260.431 107.275 C285.978 147.483 295.549 190.388 296.994 237.525 C297.037 238.867 297.081 240.21 297.125 241.552 C297.229 244.793 297.332 248.034 297.431 251.275 C298.058 251.384 298.684 251.494 299.33 251.607 C300.147 251.765 300.964 251.924 301.806 252.087 C302.618 252.238 303.43 252.389 304.267 252.544 C306.431 253.275 306.431 253.275 308.431 256.275 C308.651 258.841 308.759 261.297 308.767 263.865 C308.774 264.605 308.78 265.346 308.787 266.11 C308.797 267.676 308.802 269.242 308.802 270.808 C308.806 273.2 308.842 275.591 308.88 277.984 C308.886 279.506 308.89 281.029 308.892 282.552 C308.906 283.266 308.921 283.979 308.936 284.715 C308.907 287.859 308.719 289.869 306.88 292.464 C303.573 294.91 300.723 294.829 296.766 294.778 C295.986 294.784 295.206 294.79 294.402 294.796 C291.772 294.81 289.144 294.796 286.514 294.783 C284.616 294.787 282.718 294.794 280.82 294.802 C275.592 294.818 270.364 294.81 265.136 294.798 C259.502 294.789 253.869 294.802 248.236 294.813 C237.195 294.831 226.155 294.827 215.114 294.816 C206.144 294.807 197.174 294.806 188.204 294.81 C186.929 294.811 185.654 294.811 184.34 294.812 C181.75 294.813 179.161 294.814 176.571 294.816 C152.96 294.827 129.348 294.815 105.737 294.794 C84.174 294.775 62.61 294.777 41.046 294.796 C16.831 294.818 -7.385 294.826 -31.6 294.814 C-34.18 294.812 -36.761 294.811 -39.341 294.81 C-40.611 294.809 -41.881 294.809 -43.189 294.808 C-52.152 294.805 -61.115 294.81 -70.078 294.82 C-80.996 294.831 -91.913 294.828 -102.831 294.807 C-108.405 294.796 -113.979 294.792 -119.553 294.805 C-124.651 294.817 -129.748 294.811 -134.845 294.789 C-136.694 294.785 -138.544 294.787 -140.393 294.797 C-142.897 294.809 -145.4 294.797 -147.904 294.778 C-148.63 294.787 -149.357 294.797 -150.105 294.806 C-153.465 294.756 -155.284 294.486 -158.016 292.463 C-160.255 289.309 -160.143 286.316 -160.1 282.587 C-160.104 281.848 -160.108 281.108 -160.112 280.346 C-160.114 278.786 -160.107 277.226 -160.09 275.666 C-160.069 273.282 -160.09 270.901 -160.116 268.517 C-160.113 266.999 -160.108 265.48 -160.1 263.962 C-160.104 263.607 -160.104 263.607 -160.125 261.809 C-160.061 258.461 -159.772 256.558 -157.801 253.81 C-154.254 251.37 -151.783 251.994 -147.569 252.275 C-147.549 251.476 -147.529 250.677 -147.509 249.854 C-145.779 183.232 -130.294 119.917 -80.569 72.275 C-68.775 61.847 -56.063 52.728 -42.225 45.247 C-41.922 45.082 -41.922 45.082 -40.389 44.245 C-39.168 43.594 -37.932 42.969 -36.684 42.371 C-31.967 39.988 -29.82 37.172 -27.631 32.525 C-27.304 31.875 -26.977 31.225 -26.64 30.556 C-25.595 28.472 -24.58 26.375 -23.569 24.275 C-22.519 22.114 -21.465 19.955 -20.405 17.799 C-19.742 16.448 -19.089 15.092 -18.446 13.731 C-16.033 8.754 -13.392 3.677 -8.256 1.126 C-5.357 0.208 -3.036 0.015 0 0 Z " fill="#FCFCFC" transform="translate(552.56884765625,338.725341796875)"/>
<path d="M0 0 C1.953 -0.009 3.907 -0.019 5.86 -0.031 C11.122 -0.058 16.385 -0.059 21.647 -0.054 C26.061 -0.052 30.473 -0.062 34.886 -0.071 C45.308 -0.093 55.729 -0.094 66.151 -0.082 C76.858 -0.07 87.565 -0.095 98.272 -0.137 C107.505 -0.173 116.739 -0.184 125.972 -0.178 C131.469 -0.174 136.966 -0.179 142.463 -0.207 C147.636 -0.233 152.809 -0.228 157.983 -0.203 C159.867 -0.198 161.751 -0.203 163.635 -0.22 C182.56 -0.375 197.895 4.246 213.132 15.549 C213.899 16.114 214.666 16.679 215.456 17.26 C229.701 28.735 237.001 45.943 240.132 63.549 C240.625 68.606 240.671 73.604 240.633 78.682 C240.637 80.115 240.643 81.548 240.65 82.981 C240.663 86.82 240.653 90.658 240.636 94.497 C240.622 98.549 240.629 102.601 240.632 106.653 C240.635 113.454 240.621 120.254 240.598 127.055 C240.572 134.872 240.57 142.689 240.582 150.507 C240.592 158.083 240.586 165.66 240.572 173.236 C240.566 176.435 240.566 179.633 240.571 182.832 C240.629 234.714 240.629 234.714 222.132 254.549 C221.307 255.436 220.482 256.323 219.632 257.237 C218.807 258 217.982 258.763 217.132 259.549 C216.63 260.068 216.129 260.586 215.612 261.12 C211.325 265.286 206.677 268.065 201.382 270.737 C200.751 271.058 200.12 271.378 199.47 271.709 C197.382 272.723 195.266 273.636 193.132 274.549 C192.364 274.898 191.596 275.246 190.804 275.605 C181.684 279.229 173.013 278.955 163.375 278.73 C160.403 278.665 157.433 278.635 154.46 278.616 C146.018 278.559 137.577 278.477 129.137 278.286 C123.948 278.171 118.763 278.126 113.573 278.125 C111.617 278.111 109.661 278.072 107.706 278.006 C92.367 277.5 84.111 281.548 72.892 291.947 C70.699 293.943 68.37 295.696 65.956 297.417 C65.265 297.921 64.573 298.425 63.861 298.944 C63.524 299.189 63.524 299.189 61.819 300.424 C54.07 306.089 46.417 311.871 38.792 317.702 C32.62 322.421 26.421 327.103 20.191 331.745 C19.893 331.968 19.893 331.968 18.382 333.096 C17.826 333.51 17.27 333.925 16.697 334.351 C15.21 335.489 13.771 336.688 12.335 337.889 C10.132 339.549 10.132 339.549 7.882 339.362 C6.132 338.549 6.132 338.549 5.132 337.549 C5.038 335.708 5.014 333.863 5.018 332.02 C5.018 331.429 5.018 331.429 5.018 328.441 C5.021 327.798 5.021 327.798 5.034 324.545 C5.035 323.237 5.037 321.929 5.038 320.581 C5.042 317.098 5.052 313.614 5.063 310.13 C5.073 306.578 5.078 303.026 5.083 299.473 C5.093 292.499 5.111 285.524 5.132 278.549 C4.45 278.557 3.768 278.566 3.065 278.574 C-0.066 278.607 -3.198 278.627 -6.329 278.647 C-6.866 278.654 -6.866 278.654 -9.579 278.687 C-29.641 278.782 -47.025 271.277 -61.271 257.17 C-76.247 241.248 -81.176 223.008 -81.159 201.623 C-81.165 200.14 -81.172 198.657 -81.179 197.174 C-81.197 193.172 -81.202 189.17 -81.203 185.167 C-81.204 182.658 -81.209 180.149 -81.214 177.64 C-81.232 168.862 -81.241 160.083 -81.239 151.305 C-81.238 143.163 -81.259 135.021 -81.291 126.879 C-81.317 119.856 -81.327 112.833 -81.326 105.81 C-81.326 101.63 -81.331 97.45 -81.352 93.27 C-81.372 89.332 -81.372 85.394 -81.357 81.456 C-81.355 80.024 -81.36 78.592 -81.372 77.16 C-81.476 64.138 -79.43 50.964 -73.306 39.299 C-72.971 38.646 -72.636 37.992 -72.29 37.319 C-68.54 30.386 -63.511 24.983 -57.868 19.549 C-57.546 19.217 -57.546 19.217 -55.915 17.538 C-40.492 2.618 -20.383 -0.061 0 0 Z " fill="#FCFCFC" transform="translate(546.868408203125,792.45068359375)"/>
<path d="M0 0 C1.308 0 2.616 0 3.964 0.001 C4.693 -0.002 5.423 -0.005 6.175 -0.007 C8.645 -0.014 11.115 -0.006 13.585 0.002 C15.364 0.001 17.143 -0.002 18.922 -0.005 C23.829 -0.011 28.737 -0.005 33.645 0.003 C38.93 0.009 44.215 0.004 49.5 0.001 C59.86 -0.004 70.221 0.001 80.582 0.011 C92.634 0.021 104.687 0.021 116.739 0.021 C138.235 0.02 159.732 0.029 181.228 0.044 C202.112 0.058 222.996 0.065 243.881 0.064 C244.524 0.064 244.524 0.064 247.778 0.064 C248.42 0.064 248.42 0.064 251.669 0.064 C275.409 0.063 299.15 0.069 322.89 0.078 C331.301 0.081 339.713 0.082 348.125 0.083 C358.368 0.083 368.611 0.088 378.854 0.097 C384.085 0.102 389.317 0.105 394.548 0.103 C399.329 0.102 404.11 0.106 408.891 0.113 C410.628 0.115 412.366 0.115 414.103 0.113 C416.449 0.111 418.795 0.115 421.141 0.121 C422.448 0.122 423.756 0.122 425.104 0.123 C427.989 0.25 427.989 0.25 428.989 1.25 C429.095 3.329 429.129 5.411 429.136 7.493 C429.14 8.153 429.144 8.812 429.147 9.492 C429.159 11.718 429.162 13.944 429.166 16.171 C429.172 17.76 429.179 19.35 429.186 20.94 C429.204 25.27 429.214 29.601 429.222 33.932 C429.227 36.635 429.234 39.339 429.24 42.042 C429.259 50.494 429.273 58.947 429.281 67.399 C429.291 77.167 429.318 86.935 429.358 96.704 C429.388 104.246 429.403 111.788 429.406 119.331 C429.409 123.839 429.418 128.347 429.443 132.855 C429.466 137.097 429.47 141.337 429.46 145.578 C429.459 147.136 429.466 148.694 429.479 150.251 C429.497 152.376 429.49 154.5 429.477 156.625 C429.479 157.815 429.482 159.004 429.484 160.23 C428.888 163.864 427.871 165.032 424.989 167.25 C422.784 167.818 422.784 167.818 420.363 167.91 C419.452 167.952 418.54 167.993 417.601 168.036 C417.111 168.046 417.111 168.046 414.634 168.097 C413.617 168.122 412.601 168.148 411.554 168.173 C409.403 168.216 407.252 168.246 405.101 168.265 C401.827 168.312 398.564 168.449 395.292 168.587 C380.449 168.922 380.449 168.922 376.156 166.003 C372.822 162.572 371.05 158.538 368.989 154.25 C356.019 138.747 335.619 126.873 315.429 124.463 C310.513 124.033 305.582 124.028 300.649 123.968 C298.265 123.931 295.88 123.893 293.495 123.855 C289.753 123.801 286.011 123.749 282.269 123.697 C278.646 123.646 275.023 123.588 271.399 123.531 C270.27 123.517 269.141 123.504 267.978 123.49 C266.943 123.473 265.908 123.456 264.841 123.439 C263.926 123.426 263.011 123.414 262.068 123.401 C259.989 123.25 259.989 123.25 258.989 122.25 C258.887 120.685 258.853 119.117 258.847 117.55 C258.84 116.548 258.833 115.546 258.826 114.514 C258.822 113.423 258.818 112.331 258.813 111.207 C258.79 108.913 258.766 106.619 258.741 104.326 C258.706 100.696 258.677 97.067 258.663 93.437 C258.648 89.943 258.608 86.45 258.563 82.957 C258.564 82.416 258.564 82.416 258.569 79.679 C258.473 73.748 258.208 69.8 253.989 65.25 C250.061 62.384 247.301 61.875 242.474 61.877 C241.825 61.874 241.825 61.874 238.539 61.858 C237.129 61.867 235.719 61.876 234.309 61.886 C232.854 61.887 231.398 61.886 229.942 61.885 C226.894 61.885 223.846 61.895 220.798 61.913 C216.906 61.936 213.014 61.937 209.121 61.93 C206.115 61.926 203.109 61.933 200.103 61.943 C198.668 61.947 197.234 61.948 195.799 61.946 C193.787 61.946 191.775 61.96 189.763 61.975 C189.192 61.977 189.192 61.977 186.303 61.989 C182.009 62.327 177.644 62.884 174.247 65.687 C171.242 69.832 169.872 71.973 169.8 77.051 C169.783 78.048 169.766 79.046 169.749 80.074 C169.735 81.154 169.722 82.234 169.708 83.347 C169.699 83.9 169.699 83.9 169.652 86.694 C169.573 91.437 169.506 96.179 169.437 100.922 C169.385 104.376 169.328 107.83 169.27 111.285 C169.257 112.367 169.243 113.449 169.229 114.564 C169.213 115.559 169.196 116.553 169.179 117.578 C169.166 118.458 169.154 119.338 169.141 120.245 C168.989 122.25 168.989 122.25 167.989 123.25 C166.228 123.352 164.462 123.385 162.698 123.391 C162.131 123.395 162.131 123.395 159.265 123.413 C158.646 123.415 158.646 123.415 155.513 123.425 C152.895 123.449 150.278 123.473 147.661 123.498 C143.532 123.534 139.403 123.564 135.273 123.575 C105.604 123.674 105.604 123.674 93.989 128.25 C93.183 128.563 92.378 128.876 91.547 129.198 C89.552 130.049 87.653 130.979 85.739 132 C85.079 132.341 84.418 132.682 83.737 133.034 C77.736 136.22 72.291 140.002 66.989 144.25 C66.359 144.728 65.728 145.206 65.079 145.699 C58.896 150.614 52.886 157.232 49.513 164.376 C46.703 167.575 46.304 167.695 42.3 168.01 C40.365 168.043 38.428 168.041 36.493 168.011 C35.467 168.015 34.442 168.018 33.385 168.021 C31.217 168.021 29.049 168.006 26.882 167.977 C23.566 167.937 20.255 167.956 16.94 167.982 C14.833 167.974 12.725 167.963 10.618 167.949 C9.628 167.956 8.639 167.963 7.619 167.97 C6.691 167.951 5.764 167.932 4.808 167.912 C3.996 167.905 3.184 167.898 2.348 167.891 C-1.195 166.927 -2.687 165.045 -5.011 162.25 C-5.632 159.141 -5.632 159.141 -5.626 155.588 C-5.631 154.931 -5.637 154.275 -5.643 153.599 C-5.656 151.407 -5.633 149.218 -5.61 147.026 C-5.612 145.452 -5.616 143.878 -5.622 142.305 C-5.632 138.036 -5.611 133.768 -5.584 129.5 C-5.56 125.035 -5.563 120.57 -5.562 116.106 C-5.558 108.611 -5.534 101.117 -5.498 93.623 C-5.456 84.951 -5.439 76.278 -5.435 67.606 C-5.432 58.38 -5.413 49.154 -5.388 39.927 C-5.382 37.265 -5.378 34.602 -5.375 31.94 C-5.369 27.762 -5.353 23.586 -5.329 19.409 C-5.321 17.873 -5.317 16.337 -5.317 14.801 C-5.315 12.711 -5.302 10.621 -5.285 8.531 C-5.28 7.359 -5.276 6.188 -5.271 4.98 C-4.892 1.003 -3.945 0.327 0 0 Z " fill="#FBFBFB" transform="translate(414.01083093881607,651.7504523396492)"/>
<path d="M0 0 C0.86 0.108 1.72 0.216 2.606 0.328 C28.886 3.682 54.586 9.347 79.624 18.069 C82.15 18.944 84.686 19.779 87.23 20.602 C138.389 37.414 186.04 66.38 225.73 102.664 C227.135 103.935 228.546 105.199 229.987 106.429 C235.709 111.327 241.047 116.581 246.358 121.915 C247.872 123.435 249.392 124.949 250.912 126.463 C256.255 131.802 261.447 137.218 266.312 143 C266.847 143.628 267.382 144.256 267.932 144.903 C281.619 161.064 294.19 177.972 305.312 196 C305.724 196.666 306.136 197.333 306.56 198.02 C338.771 250.578 338.771 250.578 337.312 264 C335.192 266.711 333.298 267.528 329.996 268.316 C329.149 268.523 328.301 268.73 327.428 268.943 C326.544 269.148 325.66 269.352 324.75 269.562 C324.322 269.667 324.322 269.667 322.154 270.193 C302.164 274.992 302.164 274.992 296.312 274 C292.878 270.63 291.31 266.105 289.625 261.688 C281.586 240.688 268.312 221.214 255.312 203 C254.756 202.219 254.2 201.438 253.627 200.634 C246.66 190.9 239.57 181.679 231.312 173 C230.222 171.757 229.138 170.507 228.062 169.25 C218.413 158.197 208.331 147.693 197.312 138 C196.799 137.547 196.285 137.094 195.756 136.627 C135.339 83.675 55.674 48.682 -24.973 44.72 C-25.933 44.665 -26.893 44.611 -27.883 44.555 C-28.718 44.518 -29.554 44.482 -30.415 44.445 C-33.433 43.854 -34.664 43.366 -36.688 41 C-37.08 37.901 -37.225 35.162 -37.184 32.062 C-37.185 31.186 -37.187 30.31 -37.188 29.406 C-37.186 27.554 -37.175 25.701 -37.154 23.849 C-37.125 21.01 -37.133 18.174 -37.146 15.336 C-37.14 13.536 -37.132 11.737 -37.121 9.938 C-37.124 9.087 -37.127 8.237 -37.13 7.362 C-37.035 1.447 -37.035 1.447 -35.345 -0.725 C-28.274 -6.165 -8.427 -1.076 0 0 Z " fill="#FBFBFB" transform="translate(689.6875,151)"/>
<path d="M0 0 C0.768 -0.018 1.536 -0.035 2.328 -0.054 C7.648 -0.047 7.648 -0.047 9.827 1.594 C12.106 4.611 11.572 8.358 11.559 11.996 C11.564 12.848 11.569 13.7 11.574 14.578 C11.581 16.379 11.58 18.18 11.571 19.982 C11.563 22.737 11.591 25.489 11.623 28.244 C11.625 29.995 11.624 31.745 11.621 33.496 C11.632 34.319 11.644 35.142 11.655 35.99 C11.61 39.684 11.533 41.709 9.427 44.825 C6.677 46.602 5.066 46.844 1.805 46.93 C1.267 46.953 1.267 46.953 -1.453 47.069 C-2.624 47.108 -3.794 47.147 -5 47.188 C-77.506 51.052 -148.965 80.97 -205.875 125.312 C-206.527 125.819 -207.179 126.325 -207.85 126.846 C-226.181 141.167 -243.936 157.44 -258.875 175.312 C-259.584 176.132 -260.293 176.952 -261.023 177.797 C-285.121 206.028 -306.579 239.163 -320.938 273.477 C-321.875 275.312 -321.875 275.312 -323.875 276.312 C-331.047 276.92 -337.138 275.361 -344 273.391 C-348.7 272.046 -353.474 271.081 -358.266 270.121 C-362.459 268.822 -362.459 268.822 -363.875 266.312 C-363.851 259.22 -361.057 253.509 -358.062 247.188 C-357.573 246.14 -357.084 245.092 -356.58 244.013 C-341.645 212.459 -322.932 181.637 -300.215 155.055 C-297.817 152.245 -295.501 149.379 -293.188 146.5 C-290.182 142.813 -287.083 139.385 -283.654 136.092 C-281.893 134.331 -280.277 132.503 -278.66 130.609 C-274.923 126.31 -270.976 122.265 -266.938 118.25 C-266.273 117.582 -265.608 116.913 -264.924 116.225 C-260.406 111.715 -255.719 107.468 -250.875 103.312 C-249.746 102.327 -248.617 101.342 -247.488 100.355 C-239.832 93.713 -232.037 87.327 -223.875 81.312 C-223.253 80.854 -222.631 80.396 -221.991 79.923 C-186.586 54.008 -146.474 32.318 -104.252 20.015 C-101.394 19.17 -98.547 18.29 -95.699 17.41 C-73.017 10.462 -50.342 5.71 -26.875 2.312 C-26.469 2.252 -26.469 2.252 -24.414 1.949 C-16.281 0.77 -8.216 0.115 0 0 Z " fill="#FBB106" transform="translate(592.875,148.6875)"/>
<path d="M0 0 C0.81 -0.003 1.62 -0.006 2.454 -0.009 C4.166 -0.011 5.877 -0.005 7.588 0.007 C10.209 0.023 12.828 0.007 15.449 -0.012 C17.112 -0.01 18.775 -0.006 20.438 0 C20.83 -0.003 20.83 -0.003 22.815 -0.018 C28.176 0.051 28.176 0.051 30.721 1.679 C32.604 4.923 31.945 8.714 31.719 12.336 C31.664 13.265 31.609 14.194 31.552 15.151 C28.294 60.662 12.897 107.254 -6.281 148.398 C-6.513 148.9 -6.513 148.9 -7.687 151.438 C-19.954 177.858 -33.724 203.088 -51.281 226.398 C-52.192 227.639 -53.102 228.88 -54.012 230.121 C-63.238 242.657 -73.264 254.322 -83.836 265.734 C-85.844 267.922 -87.793 270.138 -89.719 272.398 C-96.338 280.02 -103.632 287.182 -111.324 293.715 C-112.705 294.903 -114.06 296.123 -115.395 297.363 C-122.605 304.065 -130.378 309.928 -138.233 315.842 C-140.061 317.231 -141.869 318.64 -143.668 320.066 C-197.306 362.398 -197.306 362.398 -219.281 362.398 C-219.51 355.815 -219.667 349.234 -219.776 342.647 C-219.821 340.408 -219.882 338.17 -219.96 335.932 C-220.07 332.709 -220.12 329.49 -220.16 326.266 C-220.207 325.269 -220.253 324.271 -220.301 323.244 C-220.303 320.365 -220.2 318.131 -219.281 315.398 C-216.592 312.719 -213.664 311.073 -210.281 309.398 C-209.718 309.071 -209.718 309.071 -206.867 307.414 C-206.337 307.123 -206.337 307.123 -203.656 305.648 C-181.276 293.08 -160.436 277.006 -141.645 259.578 C-139.624 257.714 -137.567 255.924 -135.469 254.148 C-126.33 246.175 -117.844 237.459 -110.332 227.941 C-108.367 225.504 -106.301 223.241 -104.156 220.961 C-86.679 201.715 -72.724 179.117 -60.281 156.398 C-59.776 155.479 -59.27 154.56 -58.749 153.612 C-51.401 140.162 -45.112 126.47 -39.428 112.24 C-38.198 109.192 -36.928 106.163 -35.652 103.133 C-30.625 91.094 -27.115 78.69 -23.949 66.052 C-23.498 64.258 -23.039 62.465 -22.574 60.675 C-19.863 50.225 -17.451 39.775 -15.672 29.125 C-15.539 28.331 -15.406 27.536 -15.27 26.718 C-14.614 22.761 -13.981 18.802 -13.373 14.838 C-13.141 13.382 -12.908 11.925 -12.676 10.469 C-12.478 9.177 -12.281 7.886 -12.077 6.555 C-11.281 3.398 -11.281 3.398 -10.212 1.481 C-7.004 -0.318 -3.582 -0.028 0 0 Z " fill="#FBFBFB" transform="translate(1026.28125,651.6015625)"/>
<path d="M0 0 C0.832 -0.003 1.664 -0.006 2.521 -0.009 C4.28 -0.011 6.038 -0.005 7.797 0.007 C10.49 0.023 13.182 0.007 15.875 -0.012 C17.583 -0.01 19.292 -0.006 21 0 C21.403 -0.003 21.403 -0.003 23.443 -0.018 C29.077 0.053 29.077 0.053 31.204 1.79 C32.894 3.887 33.004 5.321 33.238 7.992 C33.333 8.927 33.428 9.861 33.525 10.824 C33.62 11.839 33.715 12.853 33.812 13.898 C35.196 26.634 37.83 38.927 40.788 51.378 C41.425 54.08 42.038 56.786 42.637 59.496 C44.175 66.398 45.876 73.113 48.473 79.711 C49.325 81.941 50.097 84.167 50.844 86.434 C59.224 111.759 69.079 136.69 83.248 159.375 C84.564 161.501 85.839 163.648 87.109 165.801 C93.212 176.083 99.891 185.817 107.023 195.411 C108.338 197.18 109.64 198.957 110.938 200.738 C122.419 216.341 135.532 230.501 149.188 244.211 C149.983 245.012 150.779 245.812 151.6 246.637 C156.405 251.429 161.332 256.001 166.5 260.398 C167.438 261.207 168.377 262.015 169.344 262.848 C185.427 276.4 202.5 288.361 220.574 299.098 C221.16 299.472 221.745 299.846 222.348 300.232 C224.5 301.398 224.5 301.398 227.601 302.384 C231.582 303.934 233.716 305.119 236.5 308.398 C238.587 316.084 237.617 324.474 237.25 332.336 C237.19 334.568 237.135 336.801 237.086 339.033 C236.954 344.492 236.754 349.944 236.5 355.398 C233.5 356.398 233.5 356.398 230.375 355.098 C229.078 354.438 227.786 353.766 226.5 353.086 C225.797 352.723 225.094 352.36 224.37 351.985 C222.857 351.201 221.347 350.413 219.838 349.621 C217.53 348.414 215.211 347.234 212.887 346.059 C175.642 327.063 142.711 300.856 113.298 271.327 C111.674 269.698 110.046 268.074 108.416 266.451 C102.902 260.941 97.509 255.378 92.5 249.398 C91.787 248.555 91.074 247.712 90.34 246.844 C79.878 234.084 69.626 221.156 60.5 207.398 C59.799 206.352 59.097 205.305 58.375 204.227 C51.59 193.904 45.49 183.198 39.5 172.398 C39.038 171.57 38.577 170.741 38.101 169.888 C20.425 137.923 7.874 103.633 -1.5 68.398 C-1.753 67.45 -2.005 66.501 -2.266 65.524 C-6.893 47.86 -10.254 29.762 -11.438 11.523 C-11.495 10.739 -11.553 9.954 -11.612 9.146 C-11.86 3.878 -11.86 3.878 -10.223 1.7 C-7.239 -0.554 -3.596 -0.027 0 0 Z " fill="#FBB207" transform="translate(208.5,657.6015625)"/>
<path d="M0 0 C0.763 0.062 1.526 0.124 2.312 0.188 C1.576 5.87 -0.116 11.164 -1.82 16.613 C-2.465 18.7 -3.111 20.787 -3.756 22.874 C-4.092 23.958 -4.429 25.042 -4.776 26.159 C-14.159 56.397 -14.159 56.397 -18.125 70.5 C-18.4 71.468 -18.676 72.436 -18.959 73.433 C-19.198 74.297 -19.437 75.161 -19.684 76.051 C-19.881 76.765 -20.079 77.48 -20.283 78.216 C-20.688 80.188 -20.688 80.188 -20.688 84.188 C-10.128 84.352 -10.128 84.352 43.312 85.188 C43.643 86.507 43.972 87.827 44.312 89.188 C42.544 91.551 42.544 91.551 39.855 94.196 C39.369 94.681 38.883 95.167 38.383 95.666 C36.766 97.274 35.133 98.863 33.5 100.453 C32.371 101.571 31.243 102.689 30.116 103.809 C27.137 106.763 24.144 109.702 21.148 112.638 C16.951 116.754 12.774 120.889 8.595 125.023 C6.371 127.224 4.141 129.418 1.907 131.608 C-2.922 136.353 -7.621 141.135 -12.019 146.289 C-15.242 149.956 -18.749 153.349 -22.219 156.781 C-23.013 157.572 -23.808 158.363 -24.627 159.178 C-27.993 162.528 -31.365 165.871 -34.736 169.215 C-37.211 171.673 -39.684 174.133 -42.156 176.594 C-42.907 177.337 -43.659 178.08 -44.433 178.845 C-48.492 182.886 -52.379 187.012 -56.104 191.364 C-58.906 194.59 -61.879 197.643 -64.875 200.688 C-65.478 201.319 -66.08 201.951 -66.701 202.602 C-67.288 203.197 -67.876 203.793 -68.48 204.406 C-69.001 204.942 -69.523 205.477 -70.059 206.029 C-71.688 207.188 -71.688 207.188 -75.688 207.188 C-75.125 201.871 -74.225 197.016 -72.688 191.875 C-72.477 191.172 -72.267 190.469 -72.051 189.745 C-69.522 181.42 -66.703 173.187 -63.927 164.942 C-61.619 158.065 -59.437 151.197 -57.523 144.199 C-56.296 139.775 -54.905 135.404 -53.52 131.027 C-52.765 128.452 -52.214 125.819 -51.688 123.188 C-72.148 123.188 -92.607 123.188 -113.688 123.188 C-114.018 121.868 -114.347 120.548 -114.688 119.188 C-113.192 117.16 -111.763 115.52 -110 113.75 C-108.971 112.675 -107.942 111.599 -106.914 110.523 C-106.378 109.971 -105.842 109.419 -105.29 108.851 C-102.771 106.236 -100.327 103.552 -97.875 100.875 C-95.815 98.643 -93.751 96.416 -91.688 94.188 C-91.399 93.876 -91.399 93.876 -89.938 92.297 C-83.611 85.465 -77.26 78.693 -70.625 72.156 C-68.145 69.636 -65.866 66.969 -63.566 64.285 C-61.361 61.823 -59.039 59.51 -56.688 57.188 C-53.736 54.271 -50.884 51.341 -48.188 48.188 C-45.491 45.034 -42.639 42.104 -39.688 39.188 C-36.839 36.373 -34.082 33.56 -31.5 30.5 C-27.342 25.628 -22.731 21.207 -18.184 16.703 C-14.288 12.831 -10.514 8.916 -6.984 4.703 C-3.148 0.22 -3.148 0.22 0 0 Z " fill="#051E49" transform="translate(661.6875,829.8125)"/>
<path d="M0 0 C-2.845 3.885 -5.683 7.697 -8.938 11.25 C-20.675 24.893 -25.175 41.649 -25.188 59.312 C-25.194 59.756 -25.194 59.756 -25.225 61.998 C-25.267 81.261 -17.073 99.504 -3.863 113.395 C9.992 126.002 26.933 132.399 45.562 132.375 C46.608 132.376 47.653 132.378 48.73 132.379 C57.611 132.259 65.592 130.77 74 128 C69.76 141.052 54.482 151.336 42.914 157.317 C24.744 166.198 2.03 168.503 -17.414 162.387 C-40.508 153.456 -57.707 138.003 -68.312 115.312 C-76.282 96.06 -77.147 72.304 -69.138 52.914 C-65.44 44.5 -61.103 36.912 -55 30 C-54.335 29.193 -53.67 28.386 -52.984 27.555 C-40.588 12.973 -19.924 -0.573 0 0 Z " fill="#FAFAFB" transform="translate(1009,450)"/>
<path d="M0 0 C10.488 8.822 15.51 19.13 16.969 32.805 C17.421 46.437 12.75 58.548 3.414 68.539 C-1.11 72.759 -5.653 75.96 -11.414 78.215 C-11.77 78.364 -11.77 78.364 -13.574 79.117 C-24.047 82.911 -37.222 82.799 -47.414 78.215 C-60.376 71.925 -68.474 62.464 -73.223 48.906 C-76.379 37.042 -74.87 24.358 -68.988 13.609 C-67.552 11.393 -66.029 9.303 -64.414 7.215 C-63.713 6.204 -63.012 5.194 -62.289 4.152 C-46.239 -14.323 -18.755 -13.869 0 0 Z " fill="#FCB207" transform="translate(270.4140625,503.78515625)"/>
<path d="M0 0 C1.946 0.139 1.946 0.139 4 1 C5.062 3.07 5.062 3.07 5.859 5.77 C6.171 6.741 6.483 7.712 6.805 8.713 C7.43 10.764 8.045 12.819 8.648 14.877 C11.374 23.257 11.374 23.257 15.766 25.527 C17.162 26.061 18.574 26.552 20 27 C20.338 27.125 20.338 27.125 22.05 27.755 C24.021 28.469 26.001 29.118 28 29.75 C28.679 29.97 29.359 30.191 30.059 30.418 C31.704 30.951 33.352 31.476 35 32 C34.787 33.877 34.787 33.877 34 36 C32.006 37.109 32.006 37.109 29.414 37.965 C28.483 38.29 27.553 38.616 26.594 38.951 C24.623 39.606 22.651 40.26 20.68 40.912 C13.527 43.417 13.527 43.417 11.066 46.141 C10.714 47.084 10.363 48.028 10 49 C9.715 49.719 9.431 50.437 9.138 51.178 C8.151 53.708 7.226 56.255 6.312 58.812 C5.992 59.696 5.672 60.58 5.342 61.49 C4.557 63.659 3.776 65.828 3 68 C1.102 67.743 1.102 67.743 -1 67 C-1.973 65.298 -1.973 65.298 -2.633 63.105 C-2.882 62.315 -3.13 61.524 -3.387 60.709 C-3.63 59.877 -3.874 59.045 -4.125 58.188 C-4.625 56.555 -5.128 54.924 -5.633 53.293 C-5.741 52.93 -5.741 52.93 -6.286 51.091 C-8.222 45.423 -8.222 45.423 -11.469 43.656 C-11.969 43.465 -11.969 43.465 -14.5 42.5 C-15.567 42.084 -16.635 41.667 -17.734 41.238 C-18.812 40.83 -19.89 40.421 -21 40 C-22.918 39.232 -24.835 38.462 -26.75 37.688 C-28.166 37.124 -29.583 36.561 -31 36 C-31 34.68 -31 33.36 -31 32 C-26.227 30.073 -21.456 28.152 -16.625 26.375 C-16.027 26.148 -16.027 26.148 -13 25 C-12.309 24.744 -11.617 24.488 -10.905 24.225 C-8.288 22.542 -7.888 20.948 -6.895 18.027 C-6.551 17.046 -6.207 16.064 -5.854 15.053 C-5.51 14.025 -5.166 12.997 -4.812 11.938 C-4.113 9.904 -3.411 7.872 -2.707 5.84 C-2.403 4.936 -2.098 4.032 -1.784 3.101 C-1 1 -1 1 0 0 Z " fill="#F6F6F8" transform="translate(868,329)"/>
<path d="M0 0 C0.99 0.33 1.98 0.66 3 1 C4.281 3.914 4.281 3.914 5.5 7.625 C6.319 10.088 7.153 12.546 8 15 C8.407 16.24 8.815 17.48 9.234 18.758 C11.496 22.911 13.371 23.615 17.75 25.25 C18.941 25.709 20.132 26.168 21.359 26.641 C22.561 27.089 23.762 27.538 25 28 C27.345 28.976 29.672 29.985 32 31 C31.67 31.99 31.34 32.98 31 34 C28.227 35.132 25.535 36.101 22.688 37 C12.503 40.262 12.503 40.262 10 43 C8.965 45.487 8.128 47.808 7.375 50.375 C6.056 54.649 4.737 58.873 3 63 C1.129 62.781 1.129 62.781 -1 62 C-2.16 60.031 -2.16 60.031 -3.062 57.5 C-3.394 56.602 -3.725 55.703 -4.066 54.777 C-5.164 51.513 -6.178 48.23 -7.094 44.91 C-8.898 41.106 -11.725 40.102 -15.566 38.684 C-16.896 38.261 -18.228 37.845 -19.562 37.438 C-23.345 36.266 -26.666 35.222 -30 33 C-29.67 32.01 -29.34 31.02 -29 30 C-26.051 28.719 -26.051 28.719 -22.312 27.5 C-19.866 26.694 -17.428 25.861 -15 25 C-13.948 24.673 -12.896 24.345 -11.812 24.008 C-7.376 20.841 -6.381 16.413 -4.688 11.375 C-4.006 9.445 -3.322 7.515 -2.637 5.586 C-2.345 4.73 -2.053 3.875 -1.753 2.994 C-1 1 -1 1 0 0 Z " fill="#F5F6F8" transform="translate(919,713)"/>
<path d="M0 0 C3.312 1 3.312 1 5.312 4 C5.52 6.507 5.617 8.899 5.613 11.406 C5.618 12.127 5.622 12.848 5.626 13.591 C5.632 15.114 5.633 16.638 5.628 18.161 C5.625 20.492 5.648 22.821 5.674 25.152 C5.676 26.633 5.677 28.113 5.676 29.594 C5.685 30.291 5.694 30.988 5.704 31.706 C5.676 34.558 5.629 36.533 4.005 38.932 C1.046 40.8 -1.31 40.474 -4.688 40 C-7.49 37.308 -8.586 35.616 -9.221 31.758 C-9.287 24.512 -9.287 24.512 -9.264 22.08 C-9.25 20.005 -9.284 17.934 -9.322 15.859 C-9.32 14.545 -9.318 13.23 -9.316 11.875 C-9.317 10.676 -9.318 9.477 -9.319 8.242 C-8.254 2.775 -5.595 0 0 0 Z " fill="#F1AD08" transform="translate(242.6875,440)"/>
<path d="M0 0 C0.697 -0.001 1.395 -0.003 2.114 -0.004 C3.584 -0.003 5.054 0.009 6.524 0.03 C8.774 0.059 11.021 0.05 13.271 0.037 C14.702 0.043 16.132 0.052 17.562 0.062 C18.862 0.072 20.161 0.082 21.5 0.092 C24.715 0.496 24.715 0.496 26.637 1.902 C27.982 3.891 28.117 5.107 28.09 7.496 C28.094 7.836 28.094 7.836 28.113 9.559 C27.572 12.192 26.895 12.904 24.715 14.496 C21.5 14.884 21.5 14.884 17.562 14.895 C17.214 14.896 17.214 14.896 15.452 14.903 C13.98 14.905 12.508 14.9 11.036 14.887 C8.789 14.871 6.543 14.887 4.295 14.906 C2.863 14.904 1.432 14.9 0 14.895 C-1.301 14.891 -2.601 14.888 -3.941 14.884 C-7.442 14.478 -8.899 14.055 -11.285 11.496 C-11.841 7.674 -12.002 5.493 -9.709 2.304 C-6.382 -0.178 -4.124 -0.006 0 0 Z " fill="#F1AB09" transform="translate(153.28515625,532.50390625)"/>
<path d="M0 0 C0.673 -0.004 1.346 -0.008 2.039 -0.012 C3.458 -0.014 4.877 -0.007 6.295 0.01 C8.462 0.031 10.626 0.01 12.793 -0.016 C14.174 -0.013 15.556 -0.008 16.938 0 C18.19 0.005 19.442 0.009 20.732 0.014 C24.52 0.619 25.714 1.48 27.969 4.531 C28.469 7.531 28.469 7.531 27.969 10.531 C26.393 12.686 26.393 12.686 23.969 14.531 C20.625 15.049 20.625 15.049 16.684 15.062 C16.335 15.064 16.335 15.064 14.57 15.074 C13.1 15.077 11.63 15.069 10.16 15.053 C7.91 15.031 5.662 15.053 3.412 15.078 C1.982 15.075 0.551 15.07 -0.879 15.062 C-2.178 15.058 -3.478 15.053 -4.817 15.049 C-8.031 14.531 -8.031 14.531 -9.951 12.686 C-11.437 9.723 -11.508 7.803 -11.031 4.531 C-7.839 0.201 -5.223 0.019 0 0 Z " fill="#F8B006" transform="translate(312.03125,532.46875)"/>
<path d="M0 0 C2.605 1.65 2.924 2.675 3.625 5.688 C2.654 10.834 -0.392 13.34 -4 17 C-5.125 18.207 -6.249 19.416 -7.371 20.625 C-8.6 21.918 -9.83 23.21 -11.062 24.5 C-11.652 25.136 -12.241 25.772 -12.848 26.428 C-17.194 30.876 -17.194 30.876 -21.285 31.504 C-24 31 -24 31 -26.375 29.438 C-28.616 26.077 -28.403 23.984 -28 20 C-26.196 17.385 -26.196 17.385 -23.695 14.977 C-22.802 14.101 -21.909 13.226 -20.988 12.324 C-20.043 11.433 -19.099 10.543 -18.125 9.625 C-17.188 8.711 -16.251 7.797 -15.285 6.855 C-6.549 -1.604 -6.549 -1.604 0 0 Z " fill="#F5AF08" transform="translate(310,468)"/>
<path d="M0 0 C6.02 1.4 10.514 7.342 14.688 11.625 C15.1 12.027 15.1 12.027 17.188 14.062 C17.6 14.485 17.6 14.485 19.688 16.625 C20.158 17.099 20.629 17.574 21.113 18.062 C23.454 20.594 24.635 22.333 25.25 25.75 C24.545 29.351 23.711 30.556 20.688 32.625 C16.91 33.124 15.24 33.01 12.079 30.808 C6.865 25.676 6.865 25.676 5.263 24.037 C3.818 22.568 2.342 21.136 0.859 19.705 C-0.061 18.78 -0.981 17.855 -1.93 16.902 C-2.771 16.059 -3.613 15.216 -4.48 14.347 C-6.821 10.869 -6.782 8.739 -6.312 4.625 C-4.412 1.88 -3.216 0.869 0 0 Z " fill="#F2AF09" transform="translate(176.3125,466.375)"/>
<path d="M0 0 C2.375 1.625 2.375 1.625 4 4 C4.499 7.777 4.385 9.447 2.183 12.609 C-2.949 17.822 -2.949 17.822 -4.588 19.425 C-6.057 20.87 -7.489 22.346 -8.92 23.828 C-9.845 24.749 -10.77 25.669 -11.723 26.617 C-12.566 27.459 -13.409 28.3 -14.278 29.167 C-17.743 31.5 -19.902 31.424 -24 31 C-25.938 29.938 -25.938 29.938 -27 28 C-27.424 23.902 -27.5 21.743 -25.167 18.278 C-24.326 17.434 -23.484 16.591 -22.617 15.723 C-21.697 14.798 -20.776 13.873 -19.828 12.92 C-19.343 12.451 -18.857 11.983 -18.357 11.5 C-16.877 10.064 -15.434 8.597 -13.992 7.123 C-5.974 -0.789 -5.974 -0.789 0 0 Z " fill="#F7AE08" transform="translate(197,582)"/>
<path d="M0 0 C3.528 2.457 6.422 5.517 9.425 8.588 C10.87 10.057 12.346 11.489 13.828 12.92 C14.288 13.382 14.288 13.382 16.617 15.723 C17.459 16.566 18.3 17.409 19.167 18.278 C21.504 21.749 21.468 23.896 21 28 C18.841 30.574 17.495 30.941 14.175 31.338 C8.517 30.736 5.408 26.33 1.575 22.412 C0.13 20.943 -1.346 19.511 -2.828 18.08 C-3.749 17.155 -4.669 16.23 -5.617 15.277 C-6.459 14.434 -7.3 13.591 -8.167 12.722 C-10.504 9.251 -10.468 7.104 -10 3 C-7.115 -0.44 -4.301 -0.458 0 0 Z " fill="#F4B008" transform="translate(292,582)"/>
<path d="M0 0 C1.694 1.061 1.694 1.061 3 3 C3.298 5.552 3.421 7.855 3.398 10.406 C3.4 10.767 3.4 10.767 3.407 12.591 C3.409 14.115 3.404 15.638 3.391 17.161 C3.375 19.492 3.391 21.821 3.41 24.152 C3.408 25.633 3.404 27.113 3.398 28.594 C3.401 28.942 3.401 28.942 3.417 30.706 C3.375 33.556 3.31 35.54 1.694 37.939 C-1.185 39.742 -3.716 39.352 -7 39 C-8.694 37.939 -8.694 37.939 -10 36 C-10.298 33.448 -10.421 31.145 -10.398 28.594 C-10.401 27.873 -10.404 27.152 -10.407 26.409 C-10.409 24.885 -10.404 23.362 -10.391 21.839 C-10.375 19.508 -10.391 17.179 -10.41 14.848 C-10.408 13.367 -10.404 11.887 -10.398 10.406 C-10.405 9.709 -10.411 9.012 -10.417 8.294 C-10.375 5.444 -10.31 3.46 -8.694 1.061 C-5.815 -0.742 -3.284 -0.352 0 0 Z " fill="#F9B306" transform="translate(245,600)"/>
<path d="M0 0 C0.99 0 1.98 0 3 0 C2.996 0.678 2.991 1.356 2.987 2.054 C2.942 9.111 2.912 16.167 2.89 23.224 C2.88 25.857 2.866 28.491 2.849 31.124 C2.825 34.91 2.814 38.695 2.805 42.48 C2.794 43.658 2.784 44.835 2.773 46.048 C2.773 47.149 2.773 48.249 2.773 49.384 C2.769 50.35 2.764 51.315 2.759 52.311 C3.018 55.204 3.794 57.371 5 60 C1.125 59.125 1.125 59.125 0 58 C-0.094 56.189 -0.117 54.375 -0.114 52.562 C-0.113 51.401 -0.113 50.24 -0.113 49.044 C-0.108 47.78 -0.103 46.517 -0.098 45.215 C-0.096 43.929 -0.095 42.643 -0.093 41.318 C-0.09 37.894 -0.08 34.469 -0.069 31.045 C-0.058 27.553 -0.054 24.06 -0.049 20.568 C-0.038 13.712 -0.021 6.856 0 0 Z " fill="#DADEE5" transform="translate(552,1072)"/>
<path d="M0 0 C0.33 0.99 0.66 1.98 1 3 C0.143 3.846 -0.714 4.691 -1.598 5.562 C-7.012 10.926 -12.367 16.262 -17.301 22.078 C-20.678 25.898 -24.359 29.433 -28 33 C-28.66 32.34 -29.32 31.68 -30 31 C-29.552 30.557 -29.104 30.114 -28.642 29.658 C-26.571 27.608 -24.504 25.554 -22.438 23.5 C-22.085 23.152 -22.085 23.152 -20.303 21.391 C-16.199 17.306 -12.29 13.123 -8.511 8.736 C-6.773 6.74 -4.953 4.852 -3.062 3 C-2.476 2.423 -1.889 1.845 -1.285 1.25 C-0.861 0.837 -0.437 0.425 0 0 Z " fill="#152B54" transform="translate(641,849)"/>
<path d="M0 0 C2.605 1.65 2.924 2.675 3.625 5.688 C2.687 10.66 -0.399 13.576 -4 17 C-4.99 17.66 -5.98 18.32 -7 19 C-7.33 17.68 -7.66 16.36 -8 15 C-7.031 14.34 -6.061 13.68 -5.062 13 C-2.31 10.753 -1.532 9.213 -1.125 5.688 C-1.104 5.079 -1.104 5.079 -1 2 C-3.64 2.66 -6.28 3.32 -9 4 C-8.67 2.68 -8.34 1.36 -8 0 C-5.063 -1.468 -3.132 -0.767 0 0 Z " fill="#E6A90D" transform="translate(310,468)"/>
<path d="M0 0 C0.839 0.004 1.678 0.008 2.543 0.013 C5.223 0.03 7.902 0.067 10.582 0.105 C12.399 0.121 14.216 0.134 16.033 0.146 C20.487 0.18 24.941 0.231 29.395 0.293 C29.395 0.623 29.395 0.953 29.395 1.293 C28.314 1.343 27.234 1.393 26.122 1.445 C22.122 1.633 18.123 1.833 14.124 2.038 C12.391 2.124 10.659 2.208 8.926 2.288 C6.439 2.403 3.952 2.53 1.465 2.66 C0.688 2.694 -0.089 2.727 -0.89 2.761 C-6.378 3.065 -6.378 3.065 -8.605 5.293 C-9.02 7.676 -9.02 7.676 -9.23 10.418 C-9.305 11.328 -9.38 12.238 -9.457 13.176 C-9.506 13.874 -9.555 14.573 -9.605 15.293 C-9.935 15.293 -10.265 15.293 -10.605 15.293 C-11.59 11.23 -11.915 7.469 -11.605 3.293 C-8.54 -0.765 -4.693 -0.089 0 0 Z " fill="#EAAE0E" transform="translate(208.60546875,657.70703125)"/>
<path d="M0 0 C4.342 -0.099 8.683 -0.172 13.025 -0.22 C14.501 -0.24 15.978 -0.267 17.454 -0.302 C19.579 -0.35 21.703 -0.373 23.828 -0.391 C25.106 -0.412 26.384 -0.433 27.7 -0.454 C31 0 31 0 33.433 1.821 C35.48 4.667 35.311 6.574 35 10 C34.01 10 33.02 10 32 10 C31.876 9.196 31.752 8.391 31.625 7.562 C31.419 6.717 31.212 5.871 31 5 C27.178 3.089 22.385 4.053 18.188 4.16 C15 4 15 4 13 2 C9.961 1.586 9.961 1.586 6.375 1.375 C5.186 1.3 3.998 1.225 2.773 1.148 C1.858 1.099 0.943 1.05 0 1 C0 0.67 0 0.34 0 0 Z " fill="#D59F10" transform="translate(305,533)"/>
<path d="M0 0 C0.33 0 0.66 0 1 0 C1.074 4.36 1.129 8.719 1.165 13.08 C1.18 14.563 1.2 16.046 1.226 17.529 C1.263 19.661 1.28 21.793 1.293 23.926 C1.309 25.209 1.324 26.492 1.341 27.814 C1 31 1 31 -0.336 32.924 C-2.915 34.592 -5.166 34.285 -8.188 34.188 C-9.274 34.16 -10.361 34.133 -11.48 34.105 C-11.896 34.088 -11.896 34.088 -14 34 C-14 33.67 -14 33.34 -14 33 C-13.29 32.951 -12.579 32.902 -11.848 32.852 C-10.929 32.777 -10.009 32.702 -9.062 32.625 C-8.146 32.555 -7.229 32.486 -6.285 32.414 C-5.531 32.277 -4.777 32.141 -4 32 C-2.414 28.828 -2.621 25.365 -2.438 21.875 C-2.394 21.121 -2.351 20.367 -2.307 19.59 C-2.201 17.727 -2.1 15.863 -2 14 C-1.67 14 -1.34 14 -1 14 C-0.67 9.38 -0.34 4.76 0 0 Z " fill="#4B5C7C" transform="translate(691,557)"/>
<path d="M0 0 C2.773 2.773 2.332 4.498 2.375 8.375 C2.285 15.686 1.422 24.578 -4 30 C-3.67 26.04 -3.34 22.08 -3 18 C-2.34 18 -1.68 18 -1 18 C-0.835 15.03 -0.835 15.03 0 0 Z " fill="#ECAF0A" transform="translate(285,531)"/>
<path d="M0 0 C0.99 0.33 1.98 0.66 3 1 C-1.408 6.29 -6.076 11.188 -11 16 C-11.66 15.67 -12.32 15.34 -13 15 C-11.39 10.926 -8.462 8.235 -5.375 5.25 C-4.859 4.743 -4.344 4.237 -3.812 3.715 C-2.546 2.472 -1.274 1.235 0 0 Z " fill="#ECEEF1" transform="translate(125,97)"/>
<path d="M0 0 C0.66 0 1.32 0 2 0 C2 0.66 2 1.32 2 2 C2.99 2 3.98 2 5 2 C5.75 3.75 5.75 3.75 6 6 C4.312 8.25 4.312 8.25 2 10 C0.68 10 -0.64 10 -2 10 C-1.125 2.25 -1.125 2.25 0 0 Z " fill="#081A3E" transform="translate(588,1027)"/>
<path d="M0 0 C3.043 1.358 5.123 2.885 7.453 5.258 C8.072 5.883 8.691 6.508 9.328 7.152 C9.962 7.803 10.597 8.454 11.25 9.125 C11.9 9.784 12.549 10.442 13.219 11.121 C14.817 12.743 16.411 14.369 18 16 C17.34 16.66 16.68 17.32 16 18 C13.325 15.383 10.662 12.755 8 10.125 C7.237 9.379 6.474 8.632 5.688 7.863 C4.966 7.148 4.244 6.432 3.5 5.695 C2.83 5.035 2.159 4.376 1.469 3.696 C0 2 0 2 0 0 Z " fill="#232946" transform="translate(282,593)"/>
<path d="M0 0 C-0.33 0.99 -0.66 1.98 -1 3 C-12.522 5.481 -12.522 5.481 -18 4 C-13.555 -0.445 -5.978 -0.254 0 0 Z M-18 5 C-16 6 -16 6 -16 6 Z " fill="#253A60" transform="translate(530,775)"/>
<path d="M0 0 C0.99 0.33 1.98 0.66 3 1 C3.688 3.062 3.688 3.062 4 5 C2.68 5 1.36 5 0 5 C0.062 5.763 0.124 6.526 0.188 7.312 C-0.039 10.556 -0.749 10.839 -3 13 C-3.688 15.688 -3.688 15.688 -4 18 C-4.99 18.33 -5.98 18.66 -7 19 C-5.178 12.388 -2.948 6.195 0 0 Z " fill="#CFD5DE" transform="translate(919,713)"/>
<path d="M0 0 C0.33 0 0.66 0 1 0 C1 11.55 1 23.1 1 35 C0.67 35.165 0.67 35.165 -1 36 C-1.66 35.67 -2.32 35.34 -3 35 C-3 34.01 -3 33.02 -3 32 C-2.01 32 -1.02 32 0 32 C0 21.44 0 10.88 0 0 Z " fill="#06173E" transform="translate(405,554)"/>
<path d="M0 0 C0 3.286 -0.243 4.285 -2 7 C-3.011 7.804 -4.021 8.609 -5.062 9.438 C-8 12 -8 12 -8.875 14.812 C-8.916 15.534 -8.957 16.256 -9 17 C-9.33 17 -9.66 17 -10 17 C-10.43 12.656 -10.508 10.667 -7.812 7.129 C-6.884 6.282 -5.956 5.435 -5 4.562 C-4.072 3.698 -3.144 2.833 -2.188 1.941 C-1.827 1.621 -1.827 1.621 0 0 Z " fill="#D8A110" transform="translate(292,478)"/>
<path d="M0 0 C6.551 0.458 12.675 1.21 19 3 C19 3.66 19 4.32 19 5 C19.99 5.33 20.98 5.66 22 6 C14.369 5.39 7.298 3.204 0 1 C0 0.67 0 0.34 0 0 Z " fill="#2D3F67" transform="translate(218,1206)"/>
<path d="M0 0 C0.33 0 0.66 0 1 0 C0.635 5.664 -0.055 10.007 -3 15 C-3.66 15 -4.32 15 -5 15 C-4.716 13.415 -4.422 11.832 -4.125 10.25 C-3.963 9.368 -3.8 8.487 -3.633 7.578 C-2.934 4.73 -2.111 2.111 0 0 Z " fill="#0E2752" transform="translate(787,1011)"/>
<path d="M0 0 C0.66 0.33 1.32 0.66 2 1 C-2.29 5.62 -6.58 10.24 -11 15 C-11.99 14.67 -12.98 14.34 -14 14 C-9.38 9.38 -4.76 4.76 0 0 Z " fill="#DEA40D" transform="translate(334,259)"/>
<path d="M0 0 C3.63 0 7.26 0 11 0 C11 0.66 11 1.32 11 2 C15.29 2.33 19.58 2.66 24 3 C24 3.33 24 3.66 24 4 C18.617 4.22 13.404 3.793 8.062 3.125 C6.754 2.963 5.446 2.8 4.098 2.633 C3.075 2.424 2.053 2.215 1 2 C0.67 1.34 0.34 0.68 0 0 Z " fill="#314269" transform="translate(670,148)"/>
<path d="M0 0 C0.99 0.33 1.98 0.66 3 1 C-0.3 4.3 -3.6 7.6 -7 11 C-7.99 10.67 -8.98 10.34 -10 10 C-6.7 6.7 -3.4 3.4 0 0 Z " fill="#182B53" transform="translate(587,906)"/>
<path d="M0 0 C4.445 2.992 7.848 5.587 11 10 C10.34 10.66 9.68 11.32 9 12 C7.491 10.572 5.993 9.132 4.5 7.688 C3.665 6.887 2.829 6.086 1.969 5.262 C0 3 0 3 0 0 Z " fill="#0F2041" transform="translate(354,896)"/>
<path d="M0 0 C0.99 0.33 1.98 0.66 3 1 C2.457 1.459 1.915 1.918 1.355 2.391 C0.64 3.004 -0.075 3.618 -0.812 4.25 C-1.52 4.853 -2.228 5.457 -2.957 6.078 C-4.919 7.924 -6.457 9.799 -8 12 C-8.99 11.67 -9.98 11.34 -11 11 C-7.37 7.37 -3.74 3.74 0 0 Z " fill="#1B2C52" transform="translate(573,921)"/>
<path d="M0 0 C-1.958 7.831 -1.958 7.831 -5 11 C-5.66 11 -6.32 11 -7 11 C-6.551 9.352 -6.091 7.706 -5.625 6.062 C-5.37 5.146 -5.115 4.229 -4.852 3.285 C-3.779 0.406 -3.04 0 0 0 Z " fill="#203258" transform="translate(701,436)"/>
<path d="M0 0 C0.66 0.33 1.32 0.66 2 1 C-0.994 4.85 -3.444 7.962 -8 10 C-8.99 9.67 -9.98 9.34 -11 9 C-7.37 6.03 -3.74 3.06 0 0 Z " fill="#172744" transform="translate(389,271)"/>
<path d="M0 0 C0.33 0 0.66 0 1 0 C1.22 3.856 0.604 6.492 -1 10 C-2.32 9.67 -3.64 9.34 -5 9 C-5.33 7.68 -5.66 6.36 -6 5 C-5.381 4.918 -4.763 4.835 -4.125 4.75 C-2 4 -2 4 -0.75 1.938 C-0.503 1.298 -0.255 0.659 0 0 Z " fill="#E4E8ED" transform="translate(923,766)"/>
<path d="M0 0 C1.005 2.613 0.975 4.144 0.5 6.938 C-1.562 11.148 -4.059 12.519 -8 15 C-8.66 14.67 -9.32 14.34 -10 14 C-9.446 13.576 -8.891 13.152 -8.32 12.715 C-3.447 8.77 -1.019 6.242 0 0 Z " fill="#1A2F56" transform="translate(740,367)"/>
<path d="M0 0 C-1.382 3.21 -2.924 5.049 -5.625 7.25 C-5.941 7.51 -5.941 7.51 -7.539 8.828 C-8.021 9.215 -8.503 9.602 -9 10 C-9 6.479 -8.417 5.9 -6.188 3.312 C-5.665 2.69 -5.143 2.067 -4.605 1.426 C-3 0 -3 0 0 0 Z " fill="#20345C" transform="translate(1140,1141)"/>
<path d="M0 0 C2.31 0 4.62 0 7 0 C7 0.66 7 1.32 7 2 C7.299 1.907 7.299 1.907 8.812 1.438 C11 1 11 1 14 2 C14 2.66 14 3.32 14 4 C15.32 4.33 16.64 4.66 18 5 C14.629 6.686 11.28 4.689 7.875 3.562 C7.498 3.441 7.498 3.441 5.59 2.826 C3.724 2.224 1.862 1.613 0 1 C0 0.67 0 0.34 0 0 Z " fill="#34456B" transform="translate(743,161)"/>
<path d="M0 0 C0.66 0.66 1.32 1.32 2 2 C-0.97 4.97 -3.94 7.94 -7 11 C-7.66 10.34 -8.32 9.68 -9 9 C-6.03 6.03 -3.06 3.06 0 0 Z " fill="#F3F4F7" transform="translate(1143,1139)"/>
<path d="M0 0 C0.33 0 0.66 0 1 0 C1.054 2.709 1.094 5.416 1.125 8.125 C1.142 8.886 1.159 9.646 1.176 10.43 C1.215 15.033 0.759 18.665 -1 23 C-1.33 23 -1.66 23 -2 23 C-1.858 20.291 -1.712 17.583 -1.562 14.875 C-1.543 14.495 -1.543 14.495 -1.443 12.57 C-1.205 8.315 -0.798 4.196 0 0 Z " fill="#4D5E7E" transform="translate(46,242)"/>
<path d="M0 0 C3.15 3.423 3.562 6.443 4 11 C0.125 9.125 0.125 9.125 -1 8 C-0.824 5.309 -0.382 2.671 0 0 Z " fill="#DEA713" transform="translate(230,407)"/>
<path d="M0 0 C1.135 3.352 0.873 5.357 -0.25 8.688 C-0.503 9.475 -0.755 10.263 -1.016 11.074 C-2 13 -2 13 -5 14 C-3.457 9.279 -1.922 4.583 0 0 Z " fill="#20335B" transform="translate(594,365)"/>
<path d="M0 0 C-0.33 0.99 -0.66 1.98 -1 3 C-1.402 3.144 -1.402 3.144 -3.438 3.875 C-6 5 -6 5 -7.188 7.562 C-7.456 8.367 -7.724 9.171 -8 10 C-8.33 10.165 -8.33 10.165 -10 11 C-8.858 6.089 -5.881 0 0 0 Z " fill="#D9DEE7" transform="translate(546,340)"/>
<path d="M0 0 C-0.66 1.32 -1.32 2.64 -2 4 C-5.3 3.34 -8.6 2.68 -12 2 C-12 1.67 -12 1.34 -12 1 C-7.936 0.226 -4.136 -0.098 0 0 Z " fill="#DDA615" transform="translate(558,153)"/>
<path d="M0 0 C-1.491 3.795 -3.757 5.61 -7 8 C-7 4 -7 4 -5.188 1.75 C-3 0 -3 0 0 0 Z " fill="#E2E5EA" transform="translate(120,105)"/>
<path d="M0 0 C2.964 2.808 5.445 5.183 7 9 C4.688 8.812 4.688 8.812 2 8 C0.125 5.625 0.125 5.625 -1 3 C-0.67 2.01 -0.34 1.02 0 0 Z " fill="#202C42" transform="translate(282,883)"/>
<path d="M0 0 C1.65 0 3.3 0 5 0 C4.67 0.165 4.67 0.165 3 1 C3.33 2.32 3.66 3.64 4 5 C3.01 5.33 2.02 5.66 1 6 C0.01 5.34 -0.98 4.68 -2 4 C-1.34 2.68 -0.68 1.36 0 0 Z " fill="#DCE0E8" transform="translate(838,360)"/>
<path d="M0 0 C0 1.65 0 3.3 0 5 C-0.99 5.33 -1.98 5.66 -3 6 C-3.99 5.34 -4.98 4.68 -6 4 C-5.67 3.01 -5.34 2.02 -5 1 C-3 0 -3 0 0 0 Z " fill="#D8DCE4" transform="translate(895,742)"/>
<path d="M0 0 C0 0.66 0 1.32 0 2 C-6.055 2.977 -6.055 2.977 -8 3 C-8.66 2.34 -9.32 1.68 -10 1 C-6.785 -0.607 -3.564 -0.057 0 0 Z M-10 3 C-8 4 -8 4 -8 4 Z " fill="#182F5A" transform="translate(522,777)"/>
<path d="M0 0 C0.66 0.33 1.32 0.66 2 1 C1.856 1.351 1.856 1.351 1.125 3.125 C-0.021 6.055 -1.026 9.009 -2 12 C-2.66 11.67 -3.32 11.34 -4 11 C-3.523 9.541 -3.043 8.083 -2.562 6.625 C-2.296 5.813 -2.029 5.001 -1.754 4.164 C-1 2 -1 2 0 0 Z " fill="#E1A50B" transform="translate(202,516)"/>
<path d="M0 0 C0.66 0.33 1.32 0.66 2 1 C0.707 3.884 -0.659 5.872 -3 8 C-3.99 7.67 -4.98 7.34 -6 7 C-4.02 4.69 -2.04 2.38 0 0 Z " fill="#1D3158" transform="translate(102,125)"/>
<path d="M0 0 C0.976 3.383 0.859 5.566 0 9 C-0.66 9 -1.32 9 -2 9 C-2.33 9.99 -2.66 10.98 -3 12 C-4 10 -4 10 -3.223 7.617 C-2.84 6.712 -2.457 5.807 -2.062 4.875 C-1.682 3.965 -1.302 3.055 -0.91 2.117 C-0.61 1.419 -0.309 0.72 0 0 Z " fill="#D6DBE4" transform="translate(1193,1060)"/>
<path d="M0 0 C0.33 0.99 0.66 1.98 1 3 C0.048 4.006 -0.912 5.005 -1.875 6 C-2.409 6.557 -2.942 7.114 -3.492 7.688 C-5 9 -5 9 -7 9 C-5.445 5.183 -2.964 2.808 0 0 Z " fill="#1E3054" transform="translate(601,891)"/>
<path d="M0 0 C1 4 1 4 1 4 Z M-1 4 C-0.67 4.99 -0.34 5.98 0 7 C-1.98 8.32 -3.96 9.64 -6 11 C-7.32 10.34 -8.64 9.68 -10 9 C-9.072 8.732 -8.144 8.464 -7.188 8.188 C-4.238 7.089 -2.944 6.376 -1 4 Z " fill="#172648" transform="translate(202,490)"/>
<path d="M0 0 C0.99 0 1.98 0 3 0 C2.67 1.65 2.34 3.3 2 5 C1.34 5 0.68 5 0 5 C-0.33 6.32 -0.66 7.64 -1 9 C-1.66 9 -2.32 9 -3 9 C-2.01 6.03 -1.02 3.06 0 0 Z " fill="#27375C" transform="translate(990,475)"/>
<path d="M0 0 C0.66 0.66 1.32 1.32 2 2 C0.02 4.31 -1.96 6.62 -4 9 C-4.66 8.34 -5.32 7.68 -6 7 C-4.02 4.69 -2.04 2.38 0 0 Z " fill="#142B55" transform="translate(729,383)"/>
<path d="M0 0 C0.99 0.66 1.98 1.32 3 2 C-0.567 4.489 -3.89 6.55 -8 8 C-5.333 5.333 -2.667 2.667 0 0 Z " fill="#1C2F55" transform="translate(134,93)"/>
<path d="M0 0 C0.33 0.99 0.66 1.98 1 3 C-5.5 6.125 -5.5 6.125 -10 5 C-6.7 3.35 -3.4 1.7 0 0 Z " fill="#20335A" transform="translate(841,998)"/>
<path d="M0 0 C1.32 0.66 1.32 0.66 8 4 C7.67 4.99 7.34 5.98 7 7 C6.01 7 5.02 7 4 7 C4 5.68 4 4.36 4 3 C2.35 2.67 0.7 2.34 -1 2 C-0.67 1.34 -0.34 0.68 0 0 Z " fill="#EFB013" transform="translate(437,962)"/>
<path d="M0 0 C0.66 0.66 1.32 1.32 2 2 C0.02 3.98 -1.96 5.96 -4 8 C-4.99 7.67 -5.98 7.34 -7 7 C-4.69 4.69 -2.38 2.38 0 0 Z " fill="#1A2D56" transform="translate(946,913)"/>
<path d="M0 0 C2 0 2 0 3.5 1.438 C3.995 1.953 4.49 2.469 5 3 C5.66 3.33 6.32 3.66 7 4 C7 4.66 7 5.32 7 6 C6.01 6.33 5.02 6.66 4 7 C2.35 5.02 0.7 3.04 -1 1 C-0.67 0.67 -0.34 0.34 0 0 Z " fill="#0A1C3F" transform="translate(346,888)"/>
<path d="M0 0 C0.33 0.99 0.66 1.98 1 3 C-0.155 3.99 -0.155 3.99 -6 9 C-6.66 8.67 -7.32 8.34 -8 8 C-5.36 5.36 -2.72 2.72 0 0 Z " fill="#22365D" transform="translate(658,831)"/>
<path d="M0 0 C0.66 0.33 1.32 0.66 2 1 C0.68 1.33 -0.64 1.66 -2 2 C-2 2.66 -2 3.32 -2 4 C-2.66 4 -3.32 4 -4 4 C-4.66 5.32 -5.32 6.64 -6 8 C-6.66 7.67 -7.32 7.34 -8 7 C-6.893 3.79 -5.984 2.99 -3 1.188 C-2.505 0.992 -2.505 0.992 0 0 Z " fill="#324368" transform="translate(936,751)"/>
<path d="M0 0 C3.092 2.53 3.909 5.225 5 9 C1.579 7.86 0.757 7.075 -1 4 C-0.688 1.75 -0.688 1.75 0 0 Z " fill="#293C62" transform="translate(940,564)"/>
<path d="M0 0 C0.99 0.33 1.98 0.66 3 1 C2.01 3.64 1.02 6.28 0 9 C-0.99 8.67 -1.98 8.34 -3 8 C-3 7.34 -3 6.68 -3 6 C-2.34 5.67 -1.68 5.34 -1 5 C-0.375 2.438 -0.375 2.438 0 0 Z " fill="#EFAF10" transform="translate(273,411)"/>
<path d="M0 0 C0.66 0.99 1.32 1.98 2 3 C1.01 3.825 1.01 3.825 -4 8 C-4.33 7.01 -4.66 6.02 -5 5 C-3.35 3.35 -1.7 1.7 0 0 Z " fill="#172741" transform="translate(351,305)"/>
<path d="M0 0 C3.403 1.059 6.014 2.009 9 4 C9 4.66 9 5.32 9 6 C2.427 4.101 2.427 4.101 0 1 C0 0.67 0 0.34 0 0 Z " fill="#25385E" transform="translate(174,1186)"/>
<path d="M0 0 C0.99 0.33 1.98 0.66 3 1 C1.35 2.98 -0.3 4.96 -2 7 C-2.66 6.01 -3.32 5.02 -4 4 C-2.68 2.68 -1.36 1.36 0 0 Z " fill="#DEE1E7" transform="translate(912,943)"/>
<path d="M0 0 C2.64 0 5.28 0 8 0 C7.67 1.32 7.34 2.64 7 4 C6.01 4 5.02 4 4 4 C3.67 3.34 3.34 2.68 3 2 C2.01 1.34 1.02 0.68 0 0 Z " fill="#14264E" transform="translate(698,916)"/>
<path d="M0 0 C0.268 0.639 0.536 1.279 0.812 1.938 C2 4 2 4 5 5 C5 7.31 5 9.62 5 12 C0 4.5 0 4.5 0 0 Z " fill="#11254F" transform="translate(778,828)"/>
<path d="M0 0 C3.795 1.491 5.61 3.757 8 7 C5 7 5 7 2.312 4.625 C0 2 0 2 0 0 Z " fill="#1D243F" transform="translate(282,593)"/>
<path d="M0 0 C0.66 0.33 1.32 0.66 2 1 C2 2.98 2 4.96 2 7 C1.01 7 0.02 7 -1 7 C-1.33 5.02 -1.66 3.04 -2 1 C-1.34 0.67 -0.68 0.34 0 0 Z " fill="#D69813" transform="translate(338,536)"/>
<path d="M0 0 C4.752 0.432 6.92 1.328 10 5 C6.7 4.01 3.4 3.02 0 2 C0 1.34 0 0.68 0 0 Z " fill="#203257" transform="translate(738,795)"/>
<path d="M0 0 C1 3 1 3 0.25 5.625 C-1 8 -1 8 -4 9 C-2.941 5.597 -1.991 2.986 0 0 Z " fill="#1C2D50" transform="translate(929,757)"/>
<path d="M0 0 C0 0.33 0 0.66 0 1 C-3 2 -6 3 -9 4 C-8.625 2.062 -8.625 2.062 -8 0 C-5.138 -1.431 -3.066 -0.6 0 0 Z " fill="#D9A011" transform="translate(310,468)"/>
<path d="M0 0 C0.66 0.99 1.32 1.98 2 3 C1.01 3.33 0.02 3.66 -1 4 C-1.33 5.65 -1.66 7.3 -2 9 C-2.99 9.33 -3.98 9.66 -5 10 C-3.665 6.406 -2.04 3.245 0 0 Z " fill="#CFD5DF" transform="translate(728,410)"/>
<path d="M0 0 C0 0.66 0 1.32 0 2 C-3.644 4.429 -5.712 4.162 -10 4 C-7.253 1.253 -3.914 0 0 0 Z " fill="#273A60" transform="translate(896,367)"/>
<path d="M0 0 C1.65 0 3.3 0 5 0 C4.67 1.98 4.34 3.96 4 6 C3.67 5.34 3.34 4.68 3 4 C2.34 4 1.68 4 1 4 C0.67 2.68 0.34 1.36 0 0 Z " fill="#1D2D4D" transform="translate(659,830)"/>
<path d="M0 0 C0.66 0.33 1.32 0.66 2 1 C0.375 7.75 0.375 7.75 -3 10 C-2.01 6.7 -1.02 3.4 0 0 Z " fill="#D6DBE5" transform="translate(648,384)"/>
<path d="M0 0 C-0.33 0.99 -0.66 1.98 -1 3 C-3.31 3.33 -5.62 3.66 -8 4 C-8 3.01 -8 2.02 -8 1 C-5.237 0.403 -2.84 0 0 0 Z " fill="#E9AA0D" transform="translate(530,158)"/>
<path d="M0 0 C0.33 0.99 0.66 1.98 1 3 C0.01 3.825 0.01 3.825 -5 8 C-5 7.01 -5 6.02 -5 5 C-4.34 5 -3.68 5 -3 5 C-2.845 4.68 -2.845 4.68 -2.062 3.062 C-1 1 -1 1 0 0 Z " fill="#273961" transform="translate(769,1046)"/>
<path d="M0 0 C0.33 0 0.66 0 1 0 C2.25 6.625 2.25 6.625 0 10 C-0.66 10 -1.32 10 -2 10 C-1.34 6.7 -0.68 3.4 0 0 Z " fill="#22355D" transform="translate(784,1016)"/>
<path d="M0 0 C-1.393 3.367 -2.979 4.986 -6 7 C-6 5.68 -6 4.36 -6 3 C-2.786 0 -2.786 0 0 0 Z " fill="#1A2A45" transform="translate(182,590)"/>
<path d="M0 0 C0.33 0 0.66 0 1 0 C1.25 3.25 1.25 3.25 1 7 C-0.32 8.32 -1.64 9.64 -3 11 C-2.01 7.37 -1.02 3.74 0 0 Z " fill="#B5BCCB" transform="translate(710,448)"/>
<path d="M0 0 C0.66 0 1.32 0 2 0 C2.33 1.98 2.66 3.96 3 6 C1.68 5.67 0.36 5.34 -1 5 C-0.67 3.35 -0.34 1.7 0 0 Z " fill="#E5E8ED" transform="translate(868,391)"/>
<path d="M0 0 C0.66 0.33 1.32 0.66 2 1 C-0.849 4.008 -3.235 6.278 -7 8 C-6.021 6.854 -5.042 5.708 -4.062 4.562 C-3.517 3.924 -2.972 3.286 -2.41 2.629 C-1.632 1.73 -0.841 0.841 0 0 Z " fill="#DBE0E8" transform="translate(746,388)"/>
<path d="M0 0 C0.66 0.99 1.32 1.98 2 3 C0.68 4.32 -0.64 5.64 -2 7 C-2.99 6.67 -3.98 6.34 -5 6 C-3.35 4.02 -1.7 2.04 0 0 Z " fill="#DAA411" transform="translate(289,308)"/>
<path d="M0 0 C0.66 0.33 1.32 0.66 2 1 C0.35 2.65 -1.3 4.3 -3 6 C-3.66 5.34 -4.32 4.68 -5 4 C-3.35 2.68 -1.7 1.36 0 0 Z " fill="#1E3056" transform="translate(575,1117)"/>
<path d="M0 0 C0 0.99 0 1.98 0 3 C-1.65 3.66 -3.3 4.32 -5 5 C-5.66 4.34 -6.32 3.68 -7 3 C-4.69 2.01 -2.38 1.02 0 0 Z " fill="#1D345D" transform="translate(816,1011)"/>
<path d="M0 0 C0.66 0.99 1.32 1.98 2 3 C0.02 4.32 -1.96 5.64 -4 7 C-4 4 -4 4 -2 1.812 C-1.34 1.214 -0.68 0.616 0 0 Z " fill="#182D56" transform="translate(918,941)"/>
<path d="M0 0 C0.66 0.66 1.32 1.32 2 2 C1.01 2.825 1.01 2.825 -4 7 C-4 4 -4 4 -2 1.812 C-1.34 1.214 -0.68 0.616 0 0 Z " fill="#142C55" transform="translate(1075,589)"/>
<path d="M0 0 C0.66 0.99 1.32 1.98 2 3 C1.01 3.66 0.02 4.32 -1 5 C-2.188 7.125 -2.188 7.125 -3 9 C-3.369 3.462 -3.369 3.462 -1.5 1.125 C-1.005 0.754 -0.51 0.383 0 0 Z " fill="#D5A40D" transform="translate(304,534)"/>
<path d="M0 0 C0.99 0.66 1.98 1.32 3 2 C1.35 3.32 -0.3 4.64 -2 6 C-2 2 -2 2 0 0 Z " fill="#DFA20C" transform="translate(294,492)"/>
</svg>
